<svg preserveAspectRatio="none" width="100%" height="100%" overflow="visible" style="display: block;" viewBox="0 0 20 20" fill="none" xmlns="http://www.w3.org/2000/svg">
<g id="icomoon-free:linkedin2">
<path id="Vector" d="M7.5 7.5H10.9588V9.2725H11.0088C11.49 8.40875 12.6675 7.5 14.4238 7.5C18.075 7.5 18.75 9.7725 18.75 12.7288V18.75H15.1438V13.4125C15.1438 12.14 15.1175 10.5013 13.2688 10.5013C11.3913 10.5013 11.1038 11.8875 11.1038 13.32V18.75H7.5V7.5ZM1.25 7.5H5V18.75H1.25V7.5ZM5 4.375C4.99984 4.87245 4.80207 5.34945 4.4502 5.70109C4.09834 6.05272 3.6212 6.25017 3.12375 6.25C2.6263 6.24984 2.1493 6.05207 1.79767 5.7002C1.44604 5.34834 1.24858 4.8712 1.24875 4.37375C1.24892 3.8763 1.44668 3.3993 1.79855 3.04767C1.97278 2.87356 2.17959 2.73547 2.40718 2.64128C2.63478 2.5471 2.87869 2.49867 3.125 2.49875C3.37131 2.49883 3.61519 2.54743 3.84272 2.64176C4.07025 2.7361 4.27698 2.87432 4.45109 3.04855C4.6252 3.22278 4.76328 3.42959 4.85747 3.65718C4.95165 3.88478 5.00008 4.12869 5 4.375Z" fill="var(--fill-0, #00689D)"/>
</g>
</svg>
