<svg preserveAspectRatio="none" width="100%" height="100%" overflow="visible" style="display: block;" viewBox="0 0 1563 75" fill="none" xmlns="http://www.w3.org/2000/svg">
<g id="Union">
<mask id="path-1-inside-1_76_61" fill="white">
<path d="M101.5 0C118.996 0 133.693 11.9824 137.834 28.1885C139.758 28.635 141.975 28.4568 144.412 27.2725C148.864 11.5329 163.335 3.00354e-07 180.5 0H300.5C317.996 1.6328e-06 332.693 11.9824 336.834 28.1885C338.758 28.635 340.975 28.4568 343.412 27.2725C347.864 11.5329 362.335 3.00354e-07 379.5 0H499.5C516.996 1.6328e-06 531.693 11.9824 535.834 28.1885C537.758 28.635 539.975 28.4568 542.412 27.2725C546.864 11.5329 561.335 3.00354e-07 578.5 0H698.5C715.996 1.6328e-06 730.693 11.9824 734.834 28.1885C736.758 28.635 738.975 28.4568 741.412 27.2725C745.864 11.5329 760.335 6.00708e-07 777.5 0H841.5C858.996 0 873.693 11.9824 877.834 28.1885C879.758 28.635 881.975 28.4568 884.412 27.2725C888.864 11.5329 903.335 3.00354e-07 920.5 0H1040.5C1058 1.6328e-06 1072.69 11.9824 1076.83 28.1885C1078.76 28.635 1080.98 28.4568 1083.41 27.2725C1087.86 11.5329 1102.33 6.00708e-07 1119.5 0H1183.5C1201 0 1215.69 11.9824 1219.83 28.1885C1221.76 28.635 1223.98 28.4568 1226.41 27.2725C1230.86 11.5329 1245.33 6.00708e-07 1262.5 0H1326.5C1344 0 1358.69 11.9824 1362.83 28.1885C1364.76 28.635 1366.98 28.4568 1369.41 27.2725C1373.86 11.5329 1388.33 3.00354e-07 1405.5 0H1525.5C1546.21 1.93278e-06 1563 16.7893 1563 37.5C1563 58.2107 1546.21 75 1525.5 75H1405.5C1388.17 75 1373.6 63.2493 1369.29 47.2832C1367.32 46.6199 1365.07 46.5066 1362.67 47.4033C1358.33 63.3081 1343.78 75 1326.5 75H1262.5C1245.17 75 1230.6 63.2493 1226.29 47.2832C1224.32 46.6199 1222.07 46.5066 1219.67 47.4033C1215.33 63.3081 1200.78 75 1183.5 75H1119.5C1102.17 75 1087.6 63.2493 1083.29 47.2832C1081.32 46.6199 1079.07 46.5066 1076.67 47.4033C1072.33 63.3081 1057.78 75 1040.5 75H920.5C903.174 75 888.595 63.2493 884.292 47.2832C882.319 46.6199 880.074 46.5066 877.675 47.4033C873.331 63.3081 858.782 75 841.5 75H777.5C760.174 75 745.595 63.2493 741.292 47.2832C739.319 46.6199 737.074 46.5066 734.675 47.4033C730.331 63.3081 715.782 75 698.5 75H578.5C561.174 75 546.595 63.2493 542.292 47.2832C540.319 46.6199 538.074 46.5066 535.675 47.4033C531.331 63.3081 516.782 75 499.5 75H379.5C362.174 75 347.595 63.2493 343.292 47.2832C341.319 46.6199 339.074 46.5066 336.675 47.4033C332.331 63.3081 317.782 75 300.5 75H180.5C163.174 75 148.595 63.2493 144.292 47.2832C142.319 46.6199 140.074 46.5066 137.675 47.4033C133.331 63.3081 118.782 75 101.5 75H37.5C16.7893 75 0 58.2107 0 37.5C0 16.7893 16.7893 7.24793e-07 37.5 0H101.5Z"/>
</mask>
<path d="M101.5 0C118.996 0 133.693 11.9824 137.834 28.1885C139.758 28.635 141.975 28.4568 144.412 27.2725C148.864 11.5329 163.335 3.00354e-07 180.5 0H300.5C317.996 1.6328e-06 332.693 11.9824 336.834 28.1885C338.758 28.635 340.975 28.4568 343.412 27.2725C347.864 11.5329 362.335 3.00354e-07 379.5 0H499.5C516.996 1.6328e-06 531.693 11.9824 535.834 28.1885C537.758 28.635 539.975 28.4568 542.412 27.2725C546.864 11.5329 561.335 3.00354e-07 578.5 0H698.5C715.996 1.6328e-06 730.693 11.9824 734.834 28.1885C736.758 28.635 738.975 28.4568 741.412 27.2725C745.864 11.5329 760.335 6.00708e-07 777.5 0H841.5C858.996 0 873.693 11.9824 877.834 28.1885C879.758 28.635 881.975 28.4568 884.412 27.2725C888.864 11.5329 903.335 3.00354e-07 920.5 0H1040.5C1058 1.6328e-06 1072.69 11.9824 1076.83 28.1885C1078.76 28.635 1080.98 28.4568 1083.41 27.2725C1087.86 11.5329 1102.33 6.00708e-07 1119.5 0H1183.5C1201 0 1215.69 11.9824 1219.83 28.1885C1221.76 28.635 1223.98 28.4568 1226.41 27.2725C1230.86 11.5329 1245.33 6.00708e-07 1262.5 0H1326.5C1344 0 1358.69 11.9824 1362.83 28.1885C1364.76 28.635 1366.98 28.4568 1369.41 27.2725C1373.86 11.5329 1388.33 3.00354e-07 1405.5 0H1525.5C1546.21 1.93278e-06 1563 16.7893 1563 37.5C1563 58.2107 1546.21 75 1525.5 75H1405.5C1388.17 75 1373.6 63.2493 1369.29 47.2832C1367.32 46.6199 1365.07 46.5066 1362.67 47.4033C1358.33 63.3081 1343.78 75 1326.5 75H1262.5C1245.17 75 1230.6 63.2493 1226.29 47.2832C1224.32 46.6199 1222.07 46.5066 1219.67 47.4033C1215.33 63.3081 1200.78 75 1183.5 75H1119.5C1102.17 75 1087.6 63.2493 1083.29 47.2832C1081.32 46.6199 1079.07 46.5066 1076.67 47.4033C1072.33 63.3081 1057.78 75 1040.5 75H920.5C903.174 75 888.595 63.2493 884.292 47.2832C882.319 46.6199 880.074 46.5066 877.675 47.4033C873.331 63.3081 858.782 75 841.5 75H777.5C760.174 75 745.595 63.2493 741.292 47.2832C739.319 46.6199 737.074 46.5066 734.675 47.4033C730.331 63.3081 715.782 75 698.5 75H578.5C561.174 75 546.595 63.2493 542.292 47.2832C540.319 46.6199 538.074 46.5066 535.675 47.4033C531.331 63.3081 516.782 75 499.5 75H379.5C362.174 75 347.595 63.2493 343.292 47.2832C341.319 46.6199 339.074 46.5066 336.675 47.4033C332.331 63.3081 317.782 75 300.5 75H180.5C163.174 75 148.595 63.2493 144.292 47.2832C142.319 46.6199 140.074 46.5066 137.675 47.4033C133.331 63.3081 118.782 75 101.5 75H37.5C16.7893 75 0 58.2107 0 37.5C0 16.7893 16.7893 7.24793e-07 37.5 0H101.5Z" fill="var(--fill-0, #E9E9E9)"/>
<path d="M137.834 28.1885L135.896 28.6836L136.197 29.8618L137.382 30.1367L137.834 28.1885ZM144.412 27.2725L145.286 29.0713L146.093 28.6795L146.337 27.8168L144.412 27.2725ZM180.5 0L180.5 -2L180.5 0ZM300.5 0L300.5 -2H300.5V0ZM336.834 28.1885L334.896 28.6836L335.197 29.8618L336.382 30.1367L336.834 28.1885ZM343.412 27.2725L344.286 29.0713L345.093 28.6795L345.337 27.8168L343.412 27.2725ZM379.5 0L379.5 -2L379.5 0ZM499.5 0L499.5 -2H499.5V0ZM535.834 28.1885L533.896 28.6836L534.197 29.8618L535.382 30.1367L535.834 28.1885ZM542.412 27.2725L543.286 29.0713L544.093 28.6795L544.337 27.8168L542.412 27.2725ZM578.5 0L578.5 -2L578.5 0ZM698.5 0L698.5 -2H698.5V0ZM734.834 28.1885L732.896 28.6836L733.197 29.8618L734.382 30.1367L734.834 28.1885ZM741.412 27.2725L742.286 29.0713L743.093 28.6795L743.337 27.8168L741.412 27.2725ZM777.5 0L777.5 -2L777.5 -2L777.5 0ZM877.834 28.1885L875.896 28.6836L876.197 29.8618L877.382 30.1367L877.834 28.1885ZM884.412 27.2725L885.286 29.0713L886.093 28.6795L886.337 27.8168L884.412 27.2725ZM920.5 0L920.5 -2L920.5 0ZM1040.5 0L1040.5 -2H1040.5V0ZM1076.83 28.1885L1074.9 28.6836L1075.2 29.8618L1076.38 30.1367L1076.83 28.1885ZM1083.41 27.2725L1084.29 29.0713L1085.09 28.6795L1085.34 27.8168L1083.41 27.2725ZM1119.5 0L1119.5 -2L1119.5 -2L1119.5 0ZM1219.83 28.1885L1217.9 28.6836L1218.2 29.8618L1219.38 30.1367L1219.83 28.1885ZM1226.41 27.2725L1227.29 29.0713L1228.09 28.6795L1228.34 27.8168L1226.41 27.2725ZM1262.5 0L1262.5 -2L1262.5 -2L1262.5 0ZM1362.83 28.1885L1360.9 28.6836L1361.2 29.8618L1362.38 30.1367L1362.83 28.1885ZM1369.41 27.2725L1370.29 29.0713L1371.09 28.6795L1371.34 27.8168L1369.41 27.2725ZM1405.5 0L1405.5 -2L1405.5 0ZM1525.5 0L1525.5 -2H1525.5V0ZM1525.5 75L1525.5 77L1525.5 75ZM1405.5 75L1405.5 77H1405.5V75ZM1369.29 47.2832L1371.22 46.7627L1370.94 45.7287L1369.93 45.3874L1369.29 47.2832ZM1362.67 47.4033L1361.97 45.5299L1361.02 45.8884L1360.75 46.8764L1362.67 47.4033ZM1326.5 75L1326.5 77H1326.5L1326.5 75ZM1226.29 47.2832L1228.22 46.7627L1227.94 45.7287L1226.93 45.3874L1226.29 47.2832ZM1219.67 47.4033L1218.97 45.5299L1218.02 45.8884L1217.75 46.8764L1219.67 47.4033ZM1183.5 75L1183.5 77H1183.5L1183.5 75ZM1083.29 47.2832L1085.22 46.7627L1084.94 45.7287L1083.93 45.3874L1083.29 47.2832ZM1076.67 47.4033L1075.97 45.5299L1075.02 45.8884L1074.75 46.8764L1076.67 47.4033ZM1040.5 75L1040.5 77L1040.5 75ZM920.5 75L920.5 77H920.5V75ZM884.292 47.2832L886.223 46.7627L885.944 45.7287L884.929 45.3874L884.292 47.2832ZM877.675 47.4033L876.975 45.5299L876.015 45.8884L875.745 46.8764L877.675 47.4033ZM841.5 75L841.5 77H841.5L841.5 75ZM741.292 47.2832L743.223 46.7627L742.944 45.7287L741.929 45.3874L741.292 47.2832ZM734.675 47.4033L733.975 45.5299L733.015 45.8884L732.745 46.8764L734.675 47.4033ZM698.5 75L698.5 77L698.5 75ZM578.5 75L578.5 77H578.5V75ZM542.292 47.2832L544.223 46.7627L543.944 45.7287L542.929 45.3874L542.292 47.2832ZM535.675 47.4033L534.975 45.5299L534.015 45.8884L533.745 46.8764L535.675 47.4033ZM499.5 75L499.5 77L499.5 75ZM379.5 75L379.5 77H379.5V75ZM343.292 47.2832L345.223 46.7627L344.944 45.7287L343.929 45.3874L343.292 47.2832ZM336.675 47.4033L335.975 45.5299L335.015 45.8884L334.745 46.8764L336.675 47.4033ZM300.5 75L300.5 77L300.5 75ZM180.5 75L180.5 77H180.5V75ZM144.292 47.2832L146.223 46.7627L145.944 45.7287L144.929 45.3874L144.292 47.2832ZM137.675 47.4033L136.975 45.5299L136.015 45.8884L135.745 46.8764L137.675 47.4033ZM101.5 75L101.5 77H101.5L101.5 75ZM37.5 0L37.5 -2L37.5 -2L37.5 0ZM101.5 0V2C118.06 2 131.976 13.3414 135.896 28.6836L137.834 28.1885L139.772 27.6934C135.41 10.6234 119.932 -2 101.5 -2V0ZM137.834 28.1885L137.382 30.1367C139.784 30.6941 142.467 30.4412 145.286 29.0713L144.412 27.2725L143.538 25.4736C141.483 26.4724 139.733 26.576 138.286 26.2402L137.834 28.1885ZM144.412 27.2725L146.337 27.8168C150.551 12.9155 164.253 2 180.5 2L180.5 0L180.5 -2C162.417 -2 147.177 10.1502 142.488 26.7281L144.412 27.2725ZM180.5 0V2H300.5V0V-2H180.5V0ZM300.5 0L300.5 2C317.06 2 330.976 13.3414 334.896 28.6836L336.834 28.1885L338.772 27.6934C334.41 10.6234 318.932 -2 300.5 -2L300.5 0ZM336.834 28.1885L336.382 30.1367C338.784 30.6941 341.467 30.4412 344.286 29.0713L343.412 27.2725L342.538 25.4736C340.483 26.4724 338.733 26.576 337.286 26.2402L336.834 28.1885ZM343.412 27.2725L345.337 27.8168C349.551 12.9155 363.253 2 379.5 2L379.5 0L379.5 -2C361.417 -2 346.177 10.1502 341.488 26.7281L343.412 27.2725ZM379.5 0V2H499.5V0V-2H379.5V0ZM499.5 0L499.5 2C516.06 2 529.976 13.3414 533.896 28.6836L535.834 28.1885L537.772 27.6934C533.41 10.6234 517.932 -2 499.5 -2L499.5 0ZM535.834 28.1885L535.382 30.1367C537.784 30.6941 540.467 30.4412 543.286 29.0713L542.412 27.2725L541.538 25.4736C539.483 26.4724 537.733 26.576 536.286 26.2402L535.834 28.1885ZM542.412 27.2725L544.337 27.8168C548.551 12.9155 562.253 2 578.5 2L578.5 0L578.5 -2C560.417 -2 545.177 10.1502 540.488 26.7281L542.412 27.2725ZM578.5 0V2H698.5V0V-2H578.5V0ZM698.5 0L698.5 2C715.06 2 728.976 13.3414 732.896 28.6836L734.834 28.1885L736.772 27.6934C732.41 10.6234 716.932 -2 698.5 -2L698.5 0ZM734.834 28.1885L734.382 30.1367C736.784 30.6941 739.467 30.4412 742.286 29.0713L741.412 27.2725L740.538 25.4736C738.483 26.4724 736.733 26.576 735.286 26.2402L734.834 28.1885ZM741.412 27.2725L743.337 27.8168C747.551 12.9155 761.253 2 777.5 2L777.5 0L777.5 -2C759.417 -2 744.177 10.1502 739.488 26.7281L741.412 27.2725ZM777.5 0V2H841.5V0V-2H777.5V0ZM841.5 0V2C858.06 2 871.976 13.3414 875.896 28.6836L877.834 28.1885L879.772 27.6934C875.41 10.6234 859.932 -2 841.5 -2V0ZM877.834 28.1885L877.382 30.1367C879.784 30.6941 882.467 30.4412 885.286 29.0713L884.412 27.2725L883.538 25.4736C881.483 26.4724 879.733 26.576 878.286 26.2402L877.834 28.1885ZM884.412 27.2725L886.337 27.8168C890.551 12.9155 904.253 2 920.5 2L920.5 0L920.5 -2C902.417 -2 887.177 10.1502 882.488 26.7281L884.412 27.2725ZM920.5 0V2H1040.5V0V-2H920.5V0ZM1040.5 0L1040.5 2C1057.06 2 1070.98 13.3414 1074.9 28.6836L1076.83 28.1885L1078.77 27.6934C1074.41 10.6234 1058.93 -2 1040.5 -2L1040.5 0ZM1076.83 28.1885L1076.38 30.1367C1078.78 30.6941 1081.47 30.4412 1084.29 29.0713L1083.41 27.2725L1082.54 25.4736C1080.48 26.4724 1078.73 26.576 1077.29 26.2402L1076.83 28.1885ZM1083.41 27.2725L1085.34 27.8168C1089.55 12.9155 1103.25 2 1119.5 2L1119.5 0L1119.5 -2C1101.42 -2 1086.18 10.1502 1081.49 26.7281L1083.41 27.2725ZM1119.5 0V2H1183.5V0V-2H1119.5V0ZM1183.5 0V2C1200.06 2 1213.98 13.3414 1217.9 28.6836L1219.83 28.1885L1221.77 27.6934C1217.41 10.6234 1201.93 -2 1183.5 -2V0ZM1219.83 28.1885L1219.38 30.1367C1221.78 30.6941 1224.47 30.4412 1227.29 29.0713L1226.41 27.2725L1225.54 25.4736C1223.48 26.4724 1221.73 26.576 1220.29 26.2402L1219.83 28.1885ZM1226.41 27.2725L1228.34 27.8168C1232.55 12.9155 1246.25 2 1262.5 2L1262.5 0L1262.5 -2C1244.42 -2 1229.18 10.1502 1224.49 26.7281L1226.41 27.2725ZM1262.5 0V2H1326.5V0V-2H1262.5V0ZM1326.5 0V2C1343.06 2 1356.98 13.3414 1360.9 28.6836L1362.83 28.1885L1364.77 27.6934C1360.41 10.6234 1344.93 -2 1326.5 -2V0ZM1362.83 28.1885L1362.38 30.1367C1364.78 30.6941 1367.47 30.4412 1370.29 29.0713L1369.41 27.2725L1368.54 25.4736C1366.48 26.4724 1364.73 26.576 1363.29 26.2402L1362.83 28.1885ZM1369.41 27.2725L1371.34 27.8168C1375.55 12.9155 1389.25 2 1405.5 2L1405.5 0L1405.5 -2C1387.42 -2 1372.18 10.1502 1367.49 26.7281L1369.41 27.2725ZM1405.5 0V2H1525.5V0V-2H1405.5V0ZM1525.5 0L1525.5 2C1545.11 2 1561 17.8939 1561 37.5H1563H1565C1565 15.6848 1547.32 -2 1525.5 -2L1525.5 0ZM1563 37.5H1561C1561 57.1061 1545.11 73 1525.5 73L1525.5 75L1525.5 77C1547.32 77 1565 59.3152 1565 37.5H1563ZM1525.5 75V73H1405.5V75V77H1525.5V75ZM1405.5 75L1405.5 73C1389.1 73 1375.3 61.8782 1371.22 46.7627L1369.29 47.2832L1367.36 47.8037C1371.89 64.6203 1387.25 77 1405.5 77L1405.5 75ZM1369.29 47.2832L1369.93 45.3874C1367.56 44.5925 1364.85 44.457 1361.97 45.5299L1362.67 47.4033L1363.37 49.2768C1365.3 48.5561 1367.07 48.6472 1368.65 49.179L1369.29 47.2832ZM1362.67 47.4033L1360.75 46.8764C1356.63 61.934 1342.86 73 1326.5 73L1326.5 75L1326.5 77C1344.71 77 1360.03 64.6822 1364.6 47.9303L1362.67 47.4033ZM1326.5 75V73H1262.5V75V77H1326.5V75ZM1262.5 75V73C1246.1 73 1232.3 61.8782 1228.22 46.7627L1226.29 47.2832L1224.36 47.8037C1228.89 64.6203 1244.25 77 1262.5 77V75ZM1226.29 47.2832L1226.93 45.3874C1224.56 44.5925 1221.85 44.457 1218.97 45.5299L1219.67 47.4033L1220.37 49.2768C1222.3 48.5561 1224.07 48.6472 1225.65 49.179L1226.29 47.2832ZM1219.67 47.4033L1217.75 46.8764C1213.63 61.934 1199.86 73 1183.5 73L1183.5 75L1183.5 77C1201.71 77 1217.03 64.6822 1221.6 47.9303L1219.67 47.4033ZM1183.5 75V73H1119.5V75V77H1183.5V75ZM1119.5 75V73C1103.1 73 1089.3 61.8782 1085.22 46.7627L1083.29 47.2832L1081.36 47.8037C1085.89 64.6203 1101.25 77 1119.5 77V75ZM1083.29 47.2832L1083.93 45.3874C1081.56 44.5925 1078.85 44.457 1075.97 45.5299L1076.67 47.4033L1077.37 49.2768C1079.3 48.5561 1081.07 48.6472 1082.65 49.179L1083.29 47.2832ZM1076.67 47.4033L1074.75 46.8764C1070.63 61.934 1056.86 73 1040.5 73L1040.5 75L1040.5 77C1058.71 77 1074.03 64.6822 1078.6 47.9303L1076.67 47.4033ZM1040.5 75V73H920.5V75V77H1040.5V75ZM920.5 75L920.5 73C904.101 73 890.297 61.8782 886.223 46.7627L884.292 47.2832L882.361 47.8037C886.894 64.6203 902.247 77 920.5 77L920.5 75ZM884.292 47.2832L884.929 45.3874C882.564 44.5925 879.846 44.457 876.975 45.5299L877.675 47.4033L878.375 49.2768C880.303 48.5561 882.073 48.6472 883.655 49.179L884.292 47.2832ZM877.675 47.4033L875.745 46.8764C871.633 61.934 857.857 73 841.5 73L841.5 75L841.5 77C859.707 77 875.029 64.6822 879.604 47.9303L877.675 47.4033ZM841.5 75V73H777.5V75V77H841.5V75ZM777.5 75V73C761.101 73 747.297 61.8782 743.223 46.7627L741.292 47.2832L739.361 47.8037C743.894 64.6203 759.247 77 777.5 77V75ZM741.292 47.2832L741.929 45.3874C739.564 44.5925 736.846 44.457 733.975 45.5299L734.675 47.4033L735.375 49.2768C737.303 48.5561 739.073 48.6472 740.655 49.179L741.292 47.2832ZM734.675 47.4033L732.745 46.8764C728.633 61.934 714.858 73 698.5 73L698.5 75L698.5 77C716.707 77 732.029 64.6822 736.604 47.9303L734.675 47.4033ZM698.5 75V73H578.5V75V77H698.5V75ZM578.5 75L578.5 73C562.101 73 548.297 61.8782 544.223 46.7627L542.292 47.2832L540.361 47.8037C544.894 64.6203 560.247 77 578.5 77L578.5 75ZM542.292 47.2832L542.929 45.3874C540.564 44.5925 537.846 44.457 534.975 45.5299L535.675 47.4033L536.375 49.2768C538.303 48.5561 540.073 48.6472 541.655 49.179L542.292 47.2832ZM535.675 47.4033L533.745 46.8764C529.633 61.934 515.858 73 499.5 73L499.5 75L499.5 77C517.707 77 533.029 64.6822 537.604 47.9303L535.675 47.4033ZM499.5 75V73H379.5V75V77H499.5V75ZM379.5 75L379.5 73C363.101 73 349.297 61.8782 345.223 46.7627L343.292 47.2832L341.361 47.8037C345.894 64.6203 361.247 77 379.5 77L379.5 75ZM343.292 47.2832L343.929 45.3874C341.564 44.5925 338.846 44.457 335.975 45.5299L336.675 47.4033L337.375 49.2768C339.303 48.5561 341.073 48.6472 342.655 49.179L343.292 47.2832ZM336.675 47.4033L334.745 46.8764C330.633 61.934 316.858 73 300.5 73L300.5 75L300.5 77C318.707 77 334.029 64.6822 338.604 47.9303L336.675 47.4033ZM300.5 75V73H180.5V75V77H300.5V75ZM180.5 75L180.5 73C164.101 73 150.297 61.8782 146.223 46.7627L144.292 47.2832L142.361 47.8037C146.894 64.6203 162.247 77 180.5 77L180.5 75ZM144.292 47.2832L144.929 45.3874C142.564 44.5925 139.846 44.457 136.975 45.5299L137.675 47.4033L138.375 49.2768C140.303 48.5561 142.073 48.6472 143.655 49.179L144.292 47.2832ZM137.675 47.4033L135.745 46.8764C131.633 61.934 117.857 73 101.5 73L101.5 75L101.5 77C119.707 77 135.029 64.6822 139.604 47.9303L137.675 47.4033ZM101.5 75V73H37.5V75V77H101.5V75ZM37.5 75V73C17.8939 73 2 57.1061 2 37.5H0H-2C-2 59.3152 15.6848 77 37.5 77V75ZM0 37.5H2C2 17.8939 17.8939 2 37.5 2L37.5 0L37.5 -2C15.6848 -2 -2 15.6848 -2 37.5H0ZM37.5 0V2H101.5V0V-2H37.5V0Z" fill="var(--stroke-0, #CFCFCF)" mask="url(#path-1-inside-1_76_61)"/>
</g>
</svg>
