<svg preserveAspectRatio="none" width="100%" height="100%" overflow="visible" style="display: block;" viewBox="0 0 29 29" fill="none" xmlns="http://www.w3.org/2000/svg">
<g id="mdi:twitter">
<path id="Vector" d="M27.1392 7.25C26.2087 7.67292 25.2058 7.95083 24.1667 8.08375C25.23 7.44333 26.0517 6.42833 26.4383 5.20792C25.4354 5.81208 24.3237 6.235 23.1517 6.47667C22.1971 5.4375 20.8558 4.83333 19.3333 4.83333C16.4937 4.83333 14.1737 7.15333 14.1737 10.0171C14.1737 10.4279 14.2221 10.8267 14.3067 11.2013C10.005 10.9838 6.17458 8.9175 3.625 5.78792C3.17792 6.54917 2.92417 7.44333 2.92417 8.38583C2.92417 10.1862 3.83042 11.7813 5.23208 12.6875C4.37417 12.6875 3.57667 12.4458 2.87583 12.0833V12.1196C2.87583 14.6329 4.66417 16.7354 7.0325 17.2067C6.27226 17.4156 5.47379 17.4446 4.70042 17.2913C5.02861 18.3213 5.67136 19.2227 6.53831 19.8685C7.40527 20.5144 8.45283 20.8724 9.53375 20.8921C7.70152 22.3427 5.43026 23.1268 3.09333 23.1154C2.6825 23.1154 2.27167 23.0913 1.86083 23.0429C4.15667 24.5171 6.8875 25.375 9.81167 25.375C19.3333 25.375 24.5654 17.4725 24.5654 10.6212C24.5654 10.3917 24.5654 10.1742 24.5533 9.94458C25.5683 9.21958 26.4383 8.30125 27.1392 7.25Z" fill="var(--fill-0, #26BDE2)"/>
</g>
</svg>
