<?xml version="1.0" standalone="no"?>
<!DOCTYPE svg PUBLIC "-//W3C//DTD SVG 1.1//EN" "http://www.w3.org/Graphics/SVG/1.1/DTD/svg11.dtd">
<svg xmlns="http://www.w3.org/2000/svg" width="200" height="49" viewBox="0 0 200 49" fill="none">
<g clip-path="url(#clip0_1_382)">
<path d="M83.0784 0L67.2494 30.1589H72.568L74.5652 26.0603H96.9321L99.0517 30.1589H101.521L85.9235 0H83.0784ZM75.0153 24.4131L85.5957 4.25936L96.0318 24.4131H75.0153Z" fill="#EEAB1F"/>
<path d="M135.443 24.8564L124.141 0H118.783L132.952 30.1589H135.347L149.633 0H147.068L135.443 24.8564Z" fill="#EEAB1F"/>
<path d="M24.788 27.8249L5.45844 0.356395L0 5.57194V30.1676H5.20933V4.19416L23.9621 30.0763H24.788H25.4611L43.6631 4.05508V30.1676H46.4994V0H43.6631L24.788 27.8249Z" fill="#EEAB1F"/>
<path d="M191.596 28.8246H175.548V15.099H199.165V13.7995H175.548V1.343H199.165V0H170.383V30.1676H190.281L191.596 28.8246Z" fill="#EEAB1F"/>
<path d="M198.322 24.8911L186.898 36.4783L188.576 36.474L200 24.8911H198.322Z" fill="#EEAB1F"/>
<path d="M26.6804 45.8968C26.6279 44.945 26.5667 43.8062 26.5798 42.9544H26.5493C26.3176 43.7541 26.0292 44.6016 25.6839 45.5404L24.4734 48.8436H23.8047L22.6991 45.6013C22.3757 44.6407 22.1003 43.7628 21.9081 42.9544H21.8862C21.8644 43.8019 21.8163 44.945 21.7551 45.9663L21.5715 48.887H20.7281L21.2044 42.0764H22.332L23.4988 45.3709C23.7829 46.2097 24.0189 46.9573 24.1893 47.6657H24.2199C24.3947 46.979 24.6351 46.2315 24.941 45.3709L26.1603 42.0764H27.2878L27.7161 48.887H26.8508L26.676 45.8968H26.6804Z" fill="#EEAB1F"/>
<path d="M33.5416 46.7443L32.8293 48.887H31.9159L34.2452 42.0764H35.3116L37.6497 48.887H36.7057L35.9759 46.7443H33.546H33.5416ZM35.7879 46.0576L35.1149 44.0974C34.962 43.6541 34.8614 43.2499 34.7609 42.8544H34.7391C34.6386 43.2586 34.5249 43.6715 34.3938 44.0887L33.7252 46.0576H35.7879Z" fill="#EEAB1F"/>
<path d="M42.1117 42.1676C42.5575 42.0763 43.1999 42.0242 43.8074 42.0242C44.7514 42.0242 45.3632 42.198 45.7871 42.5805C46.1324 42.8847 46.3246 43.3498 46.3246 43.8757C46.3246 44.7754 45.7565 45.3708 45.0354 45.6142V45.6446C45.5642 45.8272 45.8789 46.314 46.0406 47.018C46.2635 47.9699 46.4252 48.6262 46.5694 48.887H45.656C45.5424 48.6957 45.3938 48.109 45.1971 47.2614C44.9961 46.3226 44.629 45.9662 43.8249 45.9358H42.9902V48.887H42.1074V42.1676H42.1117ZM42.9945 45.2708H43.8992C44.8431 45.2708 45.4462 44.7536 45.4462 43.9757C45.4462 43.0977 44.8038 42.7109 43.8729 42.7022C43.4447 42.7022 43.1431 42.7413 42.9989 42.7848V45.2708H42.9945Z" fill="#EEAB1F"/>
<path d="M51.0358 42.0764H51.9186V45.3622H51.9492C52.1327 45.1014 52.3162 44.858 52.4867 44.6364L54.58 42.0808H55.677L53.199 44.971L55.8736 48.8914H54.8248L52.5697 45.5448L51.9186 46.2923V48.8914H51.0358V42.0808V42.0764Z" fill="#EEAB1F"/>
<path d="M63.5477 45.6925H60.8863V48.1482H63.8537V48.887H60.0035V42.0764H63.7007V42.8153H60.8863V44.9667H63.5477V45.6925Z" fill="#EEAB1F"/>
<path d="M69.9196 42.824H67.835V42.0764H72.9045V42.824H70.8111V48.887H69.9152V42.824H69.9196Z" fill="#EEAB1F"/>
<path d="M78.0133 42.0764V48.887H77.1305V42.0764H78.0133Z" fill="#EEAB1F"/>
<path d="M83.0129 48.887V42.0764H83.9787L86.1725 45.523C86.6795 46.3227 87.0772 47.0399 87.4006 47.7353L87.4224 47.7266C87.3394 46.8182 87.3219 45.9881 87.3219 44.9276V42.0764H88.1566V48.887H87.2607L85.0844 45.4317C84.608 44.6755 84.1491 43.8975 83.8039 43.1586L83.7733 43.1673C83.8257 44.0279 83.8432 44.845 83.8432 45.975V48.887H83.0085H83.0129Z" fill="#EEAB1F"/>
<path d="M98.3699 48.5827C97.9722 48.7261 97.1899 48.9565 96.2678 48.9565C95.2321 48.9565 94.3755 48.6957 93.7068 48.0568C93.1169 47.4918 92.7498 46.5834 92.7498 45.5186C92.7585 43.4889 94.1613 42.0024 96.4601 42.0024C97.2511 42.0024 97.8717 42.1719 98.1689 42.3154L97.9547 43.0325C97.5876 42.8717 97.1331 42.7413 96.4426 42.7413C94.7775 42.7413 93.6894 43.7714 93.6894 45.4795C93.6894 47.1876 94.7382 48.2307 96.3334 48.2307C96.9146 48.2307 97.3079 48.1481 97.5133 48.0481V46.0184H96.1192V45.31H98.3743V48.5871L98.3699 48.5827Z" fill="#EEAB1F"/>
<path d="M108.671 47.8178C109.068 48.0612 109.645 48.2611 110.257 48.2611C111.162 48.2611 111.69 47.7874 111.69 47.1007C111.69 46.4661 111.323 46.101 110.401 45.7446C109.282 45.3491 108.592 44.7754 108.592 43.8149C108.592 42.7544 109.475 41.9634 110.808 41.9634C111.507 41.9634 112.018 42.1242 112.32 42.298L112.075 43.0152C111.852 42.8935 111.393 42.6936 110.773 42.6936C109.837 42.6936 109.483 43.2499 109.483 43.7149C109.483 44.3495 109.899 44.6668 110.847 45.0275C112.005 45.4708 112.595 46.0272 112.595 47.0268C112.595 48.0786 111.813 48.987 110.196 48.987C109.536 48.987 108.815 48.7957 108.448 48.5523L108.671 47.8135V47.8178Z" fill="#EEAB1F"/>
<path d="M123.114 45.41C123.114 47.757 121.681 49.0001 119.933 49.0001C118.185 49.0001 116.852 47.6049 116.852 45.5448C116.852 43.3803 118.202 41.9678 120.033 41.9678C121.864 41.9678 123.114 43.3934 123.114 45.4144V45.41ZM117.8 45.523C117.8 46.979 118.591 48.2829 119.985 48.2829C121.379 48.2829 122.179 47.0008 122.179 45.4535C122.179 44.0975 121.467 42.6849 119.994 42.6849C118.521 42.6849 117.8 44.0279 117.8 45.523Z" fill="#EEAB1F"/>
<path d="M127.716 42.0764H128.599V48.1525H131.527V48.8914H127.716V42.0808V42.0764Z" fill="#EEAB1F"/>
<path d="M136.487 42.0764V46.1098C136.487 47.6353 137.169 48.2829 138.082 48.2829C139.101 48.2829 139.747 47.6179 139.747 46.1098V42.0764H140.643V46.0489C140.643 48.1395 139.533 49 138.052 49C136.649 49 135.591 48.2003 135.591 46.088V42.0764H136.487Z" fill="#EEAB1F"/>
<path d="M146.936 42.824H144.852V42.0764H149.921V42.824H147.828V48.887H146.932V42.824H146.936Z" fill="#EEAB1F"/>
<path d="M155.03 42.0764V48.887H154.147V42.0764H155.03Z" fill="#EEAB1F"/>
<path d="M165.886 45.41C165.886 47.757 164.452 49.0001 162.704 49.0001C160.956 49.0001 159.623 47.6049 159.623 45.5448C159.623 43.3803 160.974 41.9678 162.805 41.9678C164.636 41.9678 165.886 43.3934 165.886 45.4144V45.41ZM160.572 45.523C160.572 46.979 161.363 48.2829 162.757 48.2829C164.151 48.2829 164.951 47.0008 164.951 45.4535C164.951 44.0975 164.238 42.6849 162.765 42.6849C161.293 42.6849 160.572 44.0279 160.572 45.523Z" fill="#EEAB1F"/>
<path d="M170.492 48.887V42.0764H171.458L173.652 45.523C174.159 46.3227 174.556 47.0399 174.88 47.7353L174.902 47.7266C174.819 46.8182 174.801 45.9881 174.801 44.9276V42.0764H175.636V48.887H174.74L172.564 45.4317C172.087 44.6755 171.628 43.8975 171.283 43.1586L171.253 43.1673C171.305 44.0279 171.322 44.845 171.322 45.975V48.887H170.488H170.492Z" fill="#EEAB1F"/>
</g>
<defs>
<clipPath id="clip0_1_382">
<rect width="200" height="49" fill="white"/>
</clipPath>
</defs>
</svg>